<?xml version="1.0" encoding="UTF-8" standalone="no"?>
<svg width="32" height="32" viewBox="0 0 32 32" xmlns="http://www.w3.org/2000/svg">
  <rect width="32" height="32" fill="#000000" rx="4" ry="4"/>
  
  <!-- M wave (top) - two full cosine waves: trough-peak-trough-peak-trough -->
  <path class="m-wave" d="M2,10 
                         C3.5,7 5,7 6.5,10 
                         C8,13 9.5,13 11,10 
                         C12.5,7 14,7 15.5,10 
                         C17,13 18.5,13 20,10 
                         C21.5,7 23,7 24.5,10 
                         C26,13 27.5,13 29,10" 
        fill="none" stroke="#ffffff" stroke-width="1.5" stroke-linecap="round" />
  
  <!-- A wave (middle) - one inverted cosine wave: trough-peak-trough -->
  <path class="a-wave" d="M16,16 
                         C19,14 22,14 25,16 
                         C28,18 31,18 34,16" 
        fill="none" stroke="#ffffff" stroke-width="1.2" stroke-linecap="round" />
  
  <!-- I wave (bottom) - half cosine wave: peak-trough -->
  <path class="i-wave" d="M22,22 
                         C25,20 28,20 31,22" 
        fill="none" stroke="#ffffff" stroke-width="1" stroke-linecap="round" />
</svg> 