<?xml version="1.0" encoding="UTF-8" standalone="no"?>
<svg width="200" height="120" viewBox="0 0 200 120" xmlns="http://www.w3.org/2000/svg">
  <!-- M wave (top) - two full cosine waves: trough-peak-trough-peak-trough -->
  <path class="m-wave" d="M10,40 
                         C17.5,30 25,30 32.5,40 
                         C40,50 47.5,50 55,40 
                         C62.5,30 70,30 77.5,40 
                         C85,50 92.5,50 100,40 
                         C107.5,30 115,30 122.5,40 
                         C130,50 137.5,50 145,40 
                         C152.5,30 160,30 167.5,40 
                         C175,50 182.5,50 190,40" 
        fill="none" stroke="#ffffff" stroke-width="4" stroke-linecap="round" stroke-dasharray="180" />
  
  <!-- A wave (middle) - one inverted cosine wave: trough-peak-trough -->
  <path class="a-wave" d="M100,60 
                         C112.5,50 125,50 137.5,60 
                         C150,70 162.5,70 175,60" 
        fill="none" stroke="#ffffff" stroke-width="3.5" stroke-linecap="round" stroke-dasharray="90" />
  
  <!-- I wave (bottom) - half cosine wave: peak-trough -->
  <path class="i-wave" d="M137.5,80 
                         C150,70 162.5,70 175,80" 
        fill="none" stroke="#ffffff" stroke-width="3" stroke-linecap="round" stroke-dasharray="45" />
</svg> 